# xmcd
#
# Track frame offsets: 
#        150
#        13936
#        26188
#        43307
#        58221
#        73013
#        86389
#        102169
#        117489
#        130317
#
# Disc length: 1911 seconds
#
# Revision: 0
# Processed by: cddbd v1.5.2PL0 Copyright (c) Steve Scherf et al.
# Submitted via: ExactAudioCopy v0.99pb5
#
DISCID=9207750a
DTITLE=Jess Moskaluke - Light up the night
DYEAR=2014
DGENRE=Country
TTITLE0=Good Lovin
TTITLE1=Cheap wine and Cigarettes
TTITLE2=Used
TTITLE3=Light Up the Night
TTITLE4=Strong As It's Ever Been
TTITLE5=Show You Crazy
TTITLE6=Night We Won't Forget
TTITLE7=Never Better
TTITLE8=No Show
TTITLE9=When He's Drunk
EXTD=
EXTT0=
EXTT1=
EXTT2=
EXTT3=
EXTT4=
EXTT5=
EXTT6=
EXTT7=
EXTT8=
EXTT9=
PLAYORDER=
